<mxfile host="Electron" agent="Mozilla/5.0 (Macintosh; Intel Mac OS X 10_15_7) AppleWebKit/537.36 (KHTML, like Gecko) draw.io/24.7.17 Chrome/128.0.6613.36 Electron/32.0.1 Safari/537.36" version="24.7.17">
  <diagram id="C5RBs43oDa-KdzZeNtuy" name="Page-1">
    <mxGraphModel dx="2034" dy="816" grid="1" gridSize="10" guides="1" tooltips="1" connect="1" arrows="1" fold="1" page="1" pageScale="1" pageWidth="827" pageHeight="1169" math="0" shadow="0">
      <root>
        <mxCell id="WIyWlLk6GJQsqaUBKTNV-0" />
        <mxCell id="WIyWlLk6GJQsqaUBKTNV-1" parent="WIyWlLk6GJQsqaUBKTNV-0" />
        <mxCell id="uRAl1IJuX3miMUumtEAD-47" value="" style="shape=note2;boundedLbl=1;whiteSpace=wrap;html=1;size=25;verticalAlign=top;align=center;" parent="WIyWlLk6GJQsqaUBKTNV-1" vertex="1">
          <mxGeometry x="-590" y="903" width="410" height="271" as="geometry" />
        </mxCell>
        <mxCell id="2brFXPJjxQFxoE2-N6oW-0" value="" style="endArrow=block;endFill=0;html=1;rounded=0;endSize=12;" parent="WIyWlLk6GJQsqaUBKTNV-1" edge="1">
          <mxGeometry width="160" relative="1" as="geometry">
            <mxPoint x="-560" y="989" as="sourcePoint" />
            <mxPoint x="-400" y="989" as="targetPoint" />
          </mxGeometry>
        </mxCell>
        <mxCell id="2brFXPJjxQFxoE2-N6oW-1" value="Association" style="text;html=1;align=center;verticalAlign=middle;resizable=0;points=[];autosize=1;strokeColor=none;fillColor=none;" parent="WIyWlLk6GJQsqaUBKTNV-1" vertex="1">
          <mxGeometry x="-380" y="941" width="80" height="30" as="geometry" />
        </mxCell>
        <mxCell id="2brFXPJjxQFxoE2-N6oW-6" value="" style="endArrow=open;endFill=0;html=1;rounded=0;endSize=12;" parent="WIyWlLk6GJQsqaUBKTNV-1" edge="1">
          <mxGeometry width="160" relative="1" as="geometry">
            <mxPoint x="-560" y="953" as="sourcePoint" />
            <mxPoint x="-400" y="953" as="targetPoint" />
          </mxGeometry>
        </mxCell>
        <mxCell id="2brFXPJjxQFxoE2-N6oW-15" value="Inheritance" style="text;html=1;align=center;verticalAlign=middle;resizable=0;points=[];autosize=1;strokeColor=none;fillColor=none;" parent="WIyWlLk6GJQsqaUBKTNV-1" vertex="1">
          <mxGeometry x="-380" y="974" width="80" height="30" as="geometry" />
        </mxCell>
        <mxCell id="2brFXPJjxQFxoE2-N6oW-16" value="" style="endArrow=block;endFill=0;html=1;rounded=0;dashed=1;endSize=12;" parent="WIyWlLk6GJQsqaUBKTNV-1" edge="1">
          <mxGeometry width="160" relative="1" as="geometry">
            <mxPoint x="-560" y="1024" as="sourcePoint" />
            <mxPoint x="-400" y="1024" as="targetPoint" />
          </mxGeometry>
        </mxCell>
        <mxCell id="2brFXPJjxQFxoE2-N6oW-17" value="Implement" style="text;html=1;align=center;verticalAlign=middle;resizable=0;points=[];autosize=1;strokeColor=none;fillColor=none;" parent="WIyWlLk6GJQsqaUBKTNV-1" vertex="1">
          <mxGeometry x="-380" y="1009" width="80" height="30" as="geometry" />
        </mxCell>
        <mxCell id="2brFXPJjxQFxoE2-N6oW-18" value="" style="endArrow=open;endFill=0;html=1;rounded=0;dashed=1;endSize=12;" parent="WIyWlLk6GJQsqaUBKTNV-1" edge="1">
          <mxGeometry width="160" relative="1" as="geometry">
            <mxPoint x="-560" y="1064" as="sourcePoint" />
            <mxPoint x="-400" y="1064" as="targetPoint" />
          </mxGeometry>
        </mxCell>
        <mxCell id="2brFXPJjxQFxoE2-N6oW-19" value="Depenency" style="text;html=1;align=center;verticalAlign=middle;resizable=0;points=[];autosize=1;strokeColor=none;fillColor=none;" parent="WIyWlLk6GJQsqaUBKTNV-1" vertex="1">
          <mxGeometry x="-380" y="1048" width="80" height="30" as="geometry" />
        </mxCell>
        <mxCell id="2brFXPJjxQFxoE2-N6oW-20" value="" style="endArrow=diamondThin;endFill=0;html=1;rounded=0;endSize=12;" parent="WIyWlLk6GJQsqaUBKTNV-1" edge="1">
          <mxGeometry width="160" relative="1" as="geometry">
            <mxPoint x="-560" y="1104" as="sourcePoint" />
            <mxPoint x="-400" y="1104" as="targetPoint" />
          </mxGeometry>
        </mxCell>
        <mxCell id="2brFXPJjxQFxoE2-N6oW-21" value="Aggregation" style="text;html=1;align=center;verticalAlign=middle;resizable=0;points=[];autosize=1;strokeColor=none;fillColor=none;" parent="WIyWlLk6GJQsqaUBKTNV-1" vertex="1">
          <mxGeometry x="-385" y="1088" width="90" height="30" as="geometry" />
        </mxCell>
        <mxCell id="2brFXPJjxQFxoE2-N6oW-22" value="" style="endArrow=diamondThin;endFill=1;html=1;rounded=0;jumpStyle=none;endSize=12;" parent="WIyWlLk6GJQsqaUBKTNV-1" edge="1">
          <mxGeometry width="160" relative="1" as="geometry">
            <mxPoint x="-560" y="1144" as="sourcePoint" />
            <mxPoint x="-400" y="1144" as="targetPoint" />
          </mxGeometry>
        </mxCell>
        <mxCell id="2brFXPJjxQFxoE2-N6oW-23" value="Composition" style="text;html=1;align=center;verticalAlign=middle;resizable=0;points=[];autosize=1;strokeColor=none;fillColor=none;" parent="WIyWlLk6GJQsqaUBKTNV-1" vertex="1">
          <mxGeometry x="-380" y="1128" width="90" height="30" as="geometry" />
        </mxCell>
        <mxCell id="2brFXPJjxQFxoE2-N6oW-33" value="&lt;span style=&quot;text-align: left;&quot;&gt;&amp;lt;&amp;lt;interface&amp;gt;&amp;gt;&lt;br&gt;Notifier&lt;/span&gt;" style="swimlane;fontStyle=1;align=center;verticalAlign=top;childLayout=stackLayout;horizontal=1;startSize=40;horizontalStack=0;resizeParent=1;resizeParentMax=0;resizeLast=0;collapsible=1;marginBottom=0;whiteSpace=wrap;html=1;" parent="WIyWlLk6GJQsqaUBKTNV-1" vertex="1" collapsed="1">
          <mxGeometry x="129" y="1162" width="180" height="50" as="geometry">
            <mxRectangle x="-120" y="761" width="310" height="160" as="alternateBounds" />
          </mxGeometry>
        </mxCell>
        <mxCell id="2brFXPJjxQFxoE2-N6oW-34" value="+&lt;font face=&quot;Inter, system-ui, -apple-system, system-ui, Segoe UI, Roboto, Oxygen, Ubuntu, Cantarell, Fira Sans, Droid Sans, Helvetica, Arial, sans-serif&quot; color=&quot;#212121&quot;&gt;&lt;span style=&quot;white-space-collapse: preserve; background-color: rgb(255, 255, 255);&quot;&gt; NEW&lt;/span&gt;&lt;/font&gt;: 1&lt;br&gt;+ IN_PROGRESS: 2&lt;div&gt;+ FINISHED: 3&lt;/div&gt;" style="text;strokeColor=none;fillColor=none;align=left;verticalAlign=top;spacingLeft=4;spacingRight=4;overflow=hidden;rotatable=0;points=[[0,0.5],[1,0.5]];portConstraint=eastwest;whiteSpace=wrap;html=1;" parent="2brFXPJjxQFxoE2-N6oW-33" vertex="1">
          <mxGeometry y="40" width="310" height="64" as="geometry" />
        </mxCell>
        <mxCell id="2brFXPJjxQFxoE2-N6oW-35" value="" style="line;strokeWidth=1;fillColor=none;align=left;verticalAlign=middle;spacingTop=-1;spacingLeft=3;spacingRight=3;rotatable=0;labelPosition=right;points=[];portConstraint=eastwest;strokeColor=inherit;" parent="2brFXPJjxQFxoE2-N6oW-33" vertex="1">
          <mxGeometry y="104" width="310" height="8" as="geometry" />
        </mxCell>
        <mxCell id="2brFXPJjxQFxoE2-N6oW-36" value="+ fromProgress(float|int $progress): int" style="text;strokeColor=none;fillColor=none;align=left;verticalAlign=top;spacingLeft=4;spacingRight=4;overflow=hidden;rotatable=0;points=[[0,0.5],[1,0.5]];portConstraint=eastwest;whiteSpace=wrap;html=1;" parent="2brFXPJjxQFxoE2-N6oW-33" vertex="1">
          <mxGeometry y="112" width="310" height="48" as="geometry" />
        </mxCell>
        <mxCell id="HUeuKTUBuXU9dB0qlzi5-0" value="Staff" style="swimlane;fontStyle=1;align=center;verticalAlign=top;childLayout=stackLayout;horizontal=1;startSize=26;horizontalStack=0;resizeParent=1;resizeParentMax=0;resizeLast=0;collapsible=1;marginBottom=0;whiteSpace=wrap;html=1;" parent="WIyWlLk6GJQsqaUBKTNV-1" vertex="1" collapsed="1">
          <mxGeometry x="590" y="1062" width="160" height="30" as="geometry">
            <mxRectangle x="315" y="1140" width="240" height="34" as="alternateBounds" />
          </mxGeometry>
        </mxCell>
        <mxCell id="HUeuKTUBuXU9dB0qlzi5-1" value="" style="line;strokeWidth=1;fillColor=none;align=left;verticalAlign=middle;spacingTop=-1;spacingLeft=3;spacingRight=3;rotatable=0;labelPosition=right;points=[];portConstraint=eastwest;strokeColor=inherit;" parent="HUeuKTUBuXU9dB0qlzi5-0" vertex="1">
          <mxGeometry y="26" width="240" height="8" as="geometry" />
        </mxCell>
        <mxCell id="HUeuKTUBuXU9dB0qlzi5-2" value="Owner" style="swimlane;fontStyle=1;align=center;verticalAlign=top;childLayout=stackLayout;horizontal=1;startSize=26;horizontalStack=0;resizeParent=1;resizeParentMax=0;resizeLast=0;collapsible=1;marginBottom=0;whiteSpace=wrap;html=1;" parent="WIyWlLk6GJQsqaUBKTNV-1" vertex="1" collapsed="1">
          <mxGeometry x="820" y="1062" width="160" height="30" as="geometry">
            <mxRectangle x="315" y="1140" width="240" height="34" as="alternateBounds" />
          </mxGeometry>
        </mxCell>
        <mxCell id="HUeuKTUBuXU9dB0qlzi5-3" value="" style="line;strokeWidth=1;fillColor=none;align=left;verticalAlign=middle;spacingTop=-1;spacingLeft=3;spacingRight=3;rotatable=0;labelPosition=right;points=[];portConstraint=eastwest;strokeColor=inherit;" parent="HUeuKTUBuXU9dB0qlzi5-2" vertex="1">
          <mxGeometry y="26" width="240" height="8" as="geometry" />
        </mxCell>
        <mxCell id="HUeuKTUBuXU9dB0qlzi5-4" value="Order" style="swimlane;fontStyle=1;align=center;verticalAlign=top;childLayout=stackLayout;horizontal=1;startSize=26;horizontalStack=0;resizeParent=1;resizeParentMax=0;resizeLast=0;collapsible=1;marginBottom=0;whiteSpace=wrap;html=1;" parent="WIyWlLk6GJQsqaUBKTNV-1" vertex="1" collapsed="1">
          <mxGeometry x="343" y="1062" width="160" height="30" as="geometry">
            <mxRectangle x="343" y="1062" width="240" height="34" as="alternateBounds" />
          </mxGeometry>
        </mxCell>
        <mxCell id="HUeuKTUBuXU9dB0qlzi5-5" value="" style="line;strokeWidth=1;fillColor=none;align=left;verticalAlign=middle;spacingTop=-1;spacingLeft=3;spacingRight=3;rotatable=0;labelPosition=right;points=[];portConstraint=eastwest;strokeColor=inherit;" parent="HUeuKTUBuXU9dB0qlzi5-4" vertex="1">
          <mxGeometry y="26" width="240" height="8" as="geometry" />
        </mxCell>
        <mxCell id="HUeuKTUBuXU9dB0qlzi5-6" value="Dish" style="swimlane;fontStyle=1;align=center;verticalAlign=top;childLayout=stackLayout;horizontal=1;startSize=26;horizontalStack=0;resizeParent=1;resizeParentMax=0;resizeLast=0;collapsible=1;marginBottom=0;whiteSpace=wrap;html=1;" parent="WIyWlLk6GJQsqaUBKTNV-1" vertex="1" collapsed="1">
          <mxGeometry x="139" y="972" width="160" height="30" as="geometry">
            <mxRectangle x="315" y="1140" width="240" height="34" as="alternateBounds" />
          </mxGeometry>
        </mxCell>
        <mxCell id="HUeuKTUBuXU9dB0qlzi5-7" value="" style="line;strokeWidth=1;fillColor=none;align=left;verticalAlign=middle;spacingTop=-1;spacingLeft=3;spacingRight=3;rotatable=0;labelPosition=right;points=[];portConstraint=eastwest;strokeColor=inherit;" parent="HUeuKTUBuXU9dB0qlzi5-6" vertex="1">
          <mxGeometry y="26" width="240" height="8" as="geometry" />
        </mxCell>
        <mxCell id="HUeuKTUBuXU9dB0qlzi5-8" value="Table" style="swimlane;fontStyle=1;align=center;verticalAlign=top;childLayout=stackLayout;horizontal=1;startSize=26;horizontalStack=0;resizeParent=1;resizeParentMax=0;resizeLast=0;collapsible=1;marginBottom=0;whiteSpace=wrap;html=1;" parent="WIyWlLk6GJQsqaUBKTNV-1" vertex="1" collapsed="1">
          <mxGeometry x="139" y="1062" width="160" height="30" as="geometry">
            <mxRectangle x="315" y="1140" width="240" height="34" as="alternateBounds" />
          </mxGeometry>
        </mxCell>
        <mxCell id="HUeuKTUBuXU9dB0qlzi5-9" value="" style="line;strokeWidth=1;fillColor=none;align=left;verticalAlign=middle;spacingTop=-1;spacingLeft=3;spacingRight=3;rotatable=0;labelPosition=right;points=[];portConstraint=eastwest;strokeColor=inherit;" parent="HUeuKTUBuXU9dB0qlzi5-8" vertex="1">
          <mxGeometry y="26" width="240" height="8" as="geometry" />
        </mxCell>
        <mxCell id="HUeuKTUBuXU9dB0qlzi5-12" value="User" style="swimlane;fontStyle=1;align=center;verticalAlign=top;childLayout=stackLayout;horizontal=1;startSize=26;horizontalStack=0;resizeParent=1;resizeParentMax=0;resizeLast=0;collapsible=1;marginBottom=0;whiteSpace=wrap;html=1;" parent="WIyWlLk6GJQsqaUBKTNV-1" vertex="1" collapsed="1">
          <mxGeometry x="700" y="950" width="160" height="30" as="geometry">
            <mxRectangle x="315" y="1140" width="240" height="34" as="alternateBounds" />
          </mxGeometry>
        </mxCell>
        <mxCell id="HUeuKTUBuXU9dB0qlzi5-13" value="" style="line;strokeWidth=1;fillColor=none;align=left;verticalAlign=middle;spacingTop=-1;spacingLeft=3;spacingRight=3;rotatable=0;labelPosition=right;points=[];portConstraint=eastwest;strokeColor=inherit;" parent="HUeuKTUBuXU9dB0qlzi5-12" vertex="1">
          <mxGeometry y="26" width="240" height="8" as="geometry" />
        </mxCell>
        <mxCell id="EOSxfnDk696KY7ujUc14-2" value="Customer" style="swimlane;fontStyle=1;align=center;verticalAlign=top;childLayout=stackLayout;horizontal=1;startSize=26;horizontalStack=0;resizeParent=1;resizeParentMax=0;resizeLast=0;collapsible=1;marginBottom=0;whiteSpace=wrap;html=1;" vertex="1" collapsed="1" parent="WIyWlLk6GJQsqaUBKTNV-1">
          <mxGeometry x="342.5" y="873" width="160" height="30" as="geometry">
            <mxRectangle x="315" y="1140" width="240" height="34" as="alternateBounds" />
          </mxGeometry>
        </mxCell>
        <mxCell id="EOSxfnDk696KY7ujUc14-3" value="" style="line;strokeWidth=1;fillColor=none;align=left;verticalAlign=middle;spacingTop=-1;spacingLeft=3;spacingRight=3;rotatable=0;labelPosition=right;points=[];portConstraint=eastwest;strokeColor=inherit;" vertex="1" parent="EOSxfnDk696KY7ujUc14-2">
          <mxGeometry y="26" width="240" height="8" as="geometry" />
        </mxCell>
        <mxCell id="EOSxfnDk696KY7ujUc14-4" value="OrderItem" style="swimlane;fontStyle=1;align=center;verticalAlign=top;childLayout=stackLayout;horizontal=1;startSize=26;horizontalStack=0;resizeParent=1;resizeParentMax=0;resizeLast=0;collapsible=1;marginBottom=0;whiteSpace=wrap;html=1;" vertex="1" collapsed="1" parent="WIyWlLk6GJQsqaUBKTNV-1">
          <mxGeometry x="350" y="971" width="160" height="30" as="geometry">
            <mxRectangle x="315" y="1140" width="240" height="34" as="alternateBounds" />
          </mxGeometry>
        </mxCell>
        <mxCell id="EOSxfnDk696KY7ujUc14-5" value="" style="line;strokeWidth=1;fillColor=none;align=left;verticalAlign=middle;spacingTop=-1;spacingLeft=3;spacingRight=3;rotatable=0;labelPosition=right;points=[];portConstraint=eastwest;strokeColor=inherit;" vertex="1" parent="EOSxfnDk696KY7ujUc14-4">
          <mxGeometry y="26" width="240" height="8" as="geometry" />
        </mxCell>
        <mxCell id="EOSxfnDk696KY7ujUc14-6" value="Payment" style="swimlane;fontStyle=1;align=center;verticalAlign=top;childLayout=stackLayout;horizontal=1;startSize=26;horizontalStack=0;resizeParent=1;resizeParentMax=0;resizeLast=0;collapsible=1;marginBottom=0;whiteSpace=wrap;html=1;" vertex="1" collapsed="1" parent="WIyWlLk6GJQsqaUBKTNV-1">
          <mxGeometry x="350" y="1172" width="160" height="30" as="geometry">
            <mxRectangle x="315" y="1140" width="240" height="34" as="alternateBounds" />
          </mxGeometry>
        </mxCell>
        <mxCell id="EOSxfnDk696KY7ujUc14-7" value="" style="line;strokeWidth=1;fillColor=none;align=left;verticalAlign=middle;spacingTop=-1;spacingLeft=3;spacingRight=3;rotatable=0;labelPosition=right;points=[];portConstraint=eastwest;strokeColor=inherit;" vertex="1" parent="EOSxfnDk696KY7ujUc14-6">
          <mxGeometry y="26" width="240" height="8" as="geometry" />
        </mxCell>
        <mxCell id="EOSxfnDk696KY7ujUc14-8" value="CashPayment" style="swimlane;fontStyle=1;align=center;verticalAlign=top;childLayout=stackLayout;horizontal=1;startSize=26;horizontalStack=0;resizeParent=1;resizeParentMax=0;resizeLast=0;collapsible=1;marginBottom=0;whiteSpace=wrap;html=1;" vertex="1" collapsed="1" parent="WIyWlLk6GJQsqaUBKTNV-1">
          <mxGeometry x="350" y="1270" width="160" height="30" as="geometry">
            <mxRectangle x="315" y="1140" width="240" height="34" as="alternateBounds" />
          </mxGeometry>
        </mxCell>
        <mxCell id="EOSxfnDk696KY7ujUc14-9" value="" style="line;strokeWidth=1;fillColor=none;align=left;verticalAlign=middle;spacingTop=-1;spacingLeft=3;spacingRight=3;rotatable=0;labelPosition=right;points=[];portConstraint=eastwest;strokeColor=inherit;" vertex="1" parent="EOSxfnDk696KY7ujUc14-8">
          <mxGeometry y="26" width="240" height="8" as="geometry" />
        </mxCell>
        <mxCell id="EOSxfnDk696KY7ujUc14-10" value="Catalog" style="swimlane;fontStyle=1;align=center;verticalAlign=top;childLayout=stackLayout;horizontal=1;startSize=26;horizontalStack=0;resizeParent=1;resizeParentMax=0;resizeLast=0;collapsible=1;marginBottom=0;whiteSpace=wrap;html=1;" vertex="1" collapsed="1" parent="WIyWlLk6GJQsqaUBKTNV-1">
          <mxGeometry x="-101" y="972" width="160" height="30" as="geometry">
            <mxRectangle x="315" y="1140" width="240" height="34" as="alternateBounds" />
          </mxGeometry>
        </mxCell>
        <mxCell id="EOSxfnDk696KY7ujUc14-11" value="" style="line;strokeWidth=1;fillColor=none;align=left;verticalAlign=middle;spacingTop=-1;spacingLeft=3;spacingRight=3;rotatable=0;labelPosition=right;points=[];portConstraint=eastwest;strokeColor=inherit;" vertex="1" parent="EOSxfnDk696KY7ujUc14-10">
          <mxGeometry y="26" width="240" height="8" as="geometry" />
        </mxCell>
        <mxCell id="EOSxfnDk696KY7ujUc14-16" value="" style="endArrow=open;endFill=0;html=1;rounded=0;endSize=12;exitX=1;exitY=0.5;exitDx=0;exitDy=0;" edge="1" parent="WIyWlLk6GJQsqaUBKTNV-1" source="EOSxfnDk696KY7ujUc14-10">
          <mxGeometry width="160" relative="1" as="geometry">
            <mxPoint x="69" y="982" as="sourcePoint" />
            <mxPoint x="139" y="987" as="targetPoint" />
          </mxGeometry>
        </mxCell>
        <mxCell id="EOSxfnDk696KY7ujUc14-17" value="" style="endArrow=diamondThin;endFill=0;html=1;rounded=0;endSize=12;exitX=1;exitY=0.5;exitDx=0;exitDy=0;entryX=0;entryY=0.5;entryDx=0;entryDy=0;" edge="1" parent="WIyWlLk6GJQsqaUBKTNV-1" source="HUeuKTUBuXU9dB0qlzi5-6" target="EOSxfnDk696KY7ujUc14-4">
          <mxGeometry width="160" relative="1" as="geometry">
            <mxPoint x="324" y="952" as="sourcePoint" />
            <mxPoint x="404" y="952" as="targetPoint" />
          </mxGeometry>
        </mxCell>
        <mxCell id="EOSxfnDk696KY7ujUc14-18" value="" style="endArrow=block;endFill=0;html=1;rounded=0;endSize=12;exitX=0.5;exitY=0;exitDx=0;exitDy=0;entryX=0.5;entryY=1;entryDx=0;entryDy=0;" edge="1" parent="WIyWlLk6GJQsqaUBKTNV-1" source="HUeuKTUBuXU9dB0qlzi5-0" target="HUeuKTUBuXU9dB0qlzi5-12">
          <mxGeometry width="160" relative="1" as="geometry">
            <mxPoint x="670" y="1032" as="sourcePoint" />
            <mxPoint x="750" y="1032" as="targetPoint" />
            <Array as="points">
              <mxPoint x="670" y="1022" />
              <mxPoint x="780" y="1022" />
            </Array>
          </mxGeometry>
        </mxCell>
        <mxCell id="EOSxfnDk696KY7ujUc14-21" value="" style="endArrow=none;endFill=0;html=1;rounded=0;endSize=12;entryX=0.5;entryY=0;entryDx=0;entryDy=0;" edge="1" parent="WIyWlLk6GJQsqaUBKTNV-1" target="HUeuKTUBuXU9dB0qlzi5-2">
          <mxGeometry width="160" relative="1" as="geometry">
            <mxPoint x="780" y="1022" as="sourcePoint" />
            <mxPoint x="920" y="1052" as="targetPoint" />
            <Array as="points">
              <mxPoint x="900" y="1022" />
            </Array>
          </mxGeometry>
        </mxCell>
        <mxCell id="EOSxfnDk696KY7ujUc14-22" value="" style="endArrow=diamondThin;endFill=1;html=1;rounded=0;endSize=12;startArrow=none;startFill=0;targetPerimeterSpacing=4;" edge="1" parent="WIyWlLk6GJQsqaUBKTNV-1">
          <mxGeometry width="160" relative="1" as="geometry">
            <mxPoint x="750" y="1077" as="sourcePoint" />
            <mxPoint x="820" y="1077" as="targetPoint" />
          </mxGeometry>
        </mxCell>
        <mxCell id="EOSxfnDk696KY7ujUc14-24" value="Websocket Notifier" style="swimlane;fontStyle=1;align=center;verticalAlign=top;childLayout=stackLayout;horizontal=1;startSize=26;horizontalStack=0;resizeParent=1;resizeParentMax=0;resizeLast=0;collapsible=1;marginBottom=0;whiteSpace=wrap;html=1;" vertex="1" collapsed="1" parent="WIyWlLk6GJQsqaUBKTNV-1">
          <mxGeometry x="139" y="1262" width="160" height="30" as="geometry">
            <mxRectangle x="315" y="1140" width="240" height="34" as="alternateBounds" />
          </mxGeometry>
        </mxCell>
        <mxCell id="EOSxfnDk696KY7ujUc14-25" value="" style="line;strokeWidth=1;fillColor=none;align=left;verticalAlign=middle;spacingTop=-1;spacingLeft=3;spacingRight=3;rotatable=0;labelPosition=right;points=[];portConstraint=eastwest;strokeColor=inherit;" vertex="1" parent="EOSxfnDk696KY7ujUc14-24">
          <mxGeometry y="26" width="240" height="8" as="geometry" />
        </mxCell>
        <mxCell id="EOSxfnDk696KY7ujUc14-26" value="" style="endArrow=block;endFill=0;html=1;rounded=0;endSize=12;exitX=0.5;exitY=0;exitDx=0;exitDy=0;entryX=0.5;entryY=1;entryDx=0;entryDy=0;dashed=1;" edge="1" parent="WIyWlLk6GJQsqaUBKTNV-1" source="EOSxfnDk696KY7ujUc14-24" target="2brFXPJjxQFxoE2-N6oW-33">
          <mxGeometry width="160" relative="1" as="geometry">
            <mxPoint x="89" y="1232" as="sourcePoint" />
            <mxPoint x="169" y="1232" as="targetPoint" />
          </mxGeometry>
        </mxCell>
        <mxCell id="EOSxfnDk696KY7ujUc14-27" value="" style="endArrow=openThin;endFill=0;html=1;rounded=0;endSize=12;exitX=0;exitY=0.5;exitDx=0;exitDy=0;entryX=1;entryY=0.5;entryDx=0;entryDy=0;dashed=1;" edge="1" parent="WIyWlLk6GJQsqaUBKTNV-1" source="HUeuKTUBuXU9dB0qlzi5-0" target="HUeuKTUBuXU9dB0qlzi5-4">
          <mxGeometry width="160" relative="1" as="geometry">
            <mxPoint x="539" y="988.55" as="sourcePoint" />
            <mxPoint x="619" y="988.55" as="targetPoint" />
          </mxGeometry>
        </mxCell>
        <mxCell id="EOSxfnDk696KY7ujUc14-28" value="" style="endArrow=diamondThin;endFill=0;html=1;rounded=0;endSize=12;exitX=0.5;exitY=1;exitDx=0;exitDy=0;" edge="1" parent="WIyWlLk6GJQsqaUBKTNV-1" source="HUeuKTUBuXU9dB0qlzi5-4">
          <mxGeometry width="160" relative="1" as="geometry">
            <mxPoint x="410" y="1088" as="sourcePoint" />
            <mxPoint x="220" y="1160" as="targetPoint" />
            <Array as="points">
              <mxPoint x="423" y="1120" />
              <mxPoint x="220" y="1120" />
            </Array>
          </mxGeometry>
        </mxCell>
        <mxCell id="EOSxfnDk696KY7ujUc14-30" value="" style="endArrow=open;endFill=0;html=1;rounded=0;endSize=12;entryX=0.5;entryY=1;entryDx=0;entryDy=0;" edge="1" parent="WIyWlLk6GJQsqaUBKTNV-1" target="EOSxfnDk696KY7ujUc14-2">
          <mxGeometry width="160" relative="1" as="geometry">
            <mxPoint x="422" y="970" as="sourcePoint" />
            <mxPoint x="400" y="941" as="targetPoint" />
          </mxGeometry>
        </mxCell>
        <mxCell id="EOSxfnDk696KY7ujUc14-31" value="" style="endArrow=none;endFill=0;html=1;rounded=0;endSize=12;startArrow=none;startFill=0;targetPerimeterSpacing=4;entryX=0.5;entryY=1;entryDx=0;entryDy=0;" edge="1" parent="WIyWlLk6GJQsqaUBKTNV-1" target="HUeuKTUBuXU9dB0qlzi5-4">
          <mxGeometry width="160" relative="1" as="geometry">
            <mxPoint x="423" y="1170" as="sourcePoint" />
            <mxPoint x="422" y="1120" as="targetPoint" />
          </mxGeometry>
        </mxCell>
        <mxCell id="EOSxfnDk696KY7ujUc14-32" value="" style="endArrow=block;endFill=0;html=1;rounded=0;endSize=12;startArrow=none;startFill=0;targetPerimeterSpacing=4;exitX=0.5;exitY=0;exitDx=0;exitDy=0;entryX=0.5;entryY=1;entryDx=0;entryDy=0;" edge="1" parent="WIyWlLk6GJQsqaUBKTNV-1" source="EOSxfnDk696KY7ujUc14-8" target="EOSxfnDk696KY7ujUc14-6">
          <mxGeometry width="160" relative="1" as="geometry">
            <mxPoint x="420" y="1250" as="sourcePoint" />
            <mxPoint x="420" y="1200" as="targetPoint" />
          </mxGeometry>
        </mxCell>
        <mxCell id="EOSxfnDk696KY7ujUc14-33" value="" style="endArrow=open;endFill=0;html=1;rounded=0;endSize=12;exitX=0.5;exitY=0;exitDx=0;exitDy=0;" edge="1" parent="WIyWlLk6GJQsqaUBKTNV-1" source="HUeuKTUBuXU9dB0qlzi5-8">
          <mxGeometry width="160" relative="1" as="geometry">
            <mxPoint x="218.41" y="1062" as="sourcePoint" />
            <mxPoint x="219" y="1000" as="targetPoint" />
          </mxGeometry>
        </mxCell>
        <mxCell id="EOSxfnDk696KY7ujUc14-34" value="" style="endArrow=open;endFill=0;html=1;rounded=0;endSize=12;exitX=0;exitY=0.5;exitDx=0;exitDy=0;entryX=0;entryY=0.5;entryDx=0;entryDy=0;" edge="1" parent="WIyWlLk6GJQsqaUBKTNV-1" source="HUeuKTUBuXU9dB0qlzi5-8" target="EOSxfnDk696KY7ujUc14-2">
          <mxGeometry width="160" relative="1" as="geometry">
            <mxPoint x="229" y="1072" as="sourcePoint" />
            <mxPoint x="229" y="1010" as="targetPoint" />
            <Array as="points">
              <mxPoint x="90" y="1077" />
              <mxPoint x="90" y="890" />
            </Array>
          </mxGeometry>
        </mxCell>
        <mxCell id="EOSxfnDk696KY7ujUc14-36" value="" style="endArrow=diamondThin;endFill=1;html=1;rounded=0;endSize=12;startArrow=none;startFill=0;targetPerimeterSpacing=4;entryX=0.5;entryY=0;entryDx=0;entryDy=0;" edge="1" parent="WIyWlLk6GJQsqaUBKTNV-1" target="HUeuKTUBuXU9dB0qlzi5-4">
          <mxGeometry width="160" relative="1" as="geometry">
            <mxPoint x="423" y="1000" as="sourcePoint" />
            <mxPoint x="420" y="1050" as="targetPoint" />
          </mxGeometry>
        </mxCell>
      </root>
    </mxGraphModel>
  </diagram>
</mxfile>
